<svg width="24" height="24" viewBox="0 0 24 24" fill="none" xmlns="http://www.w3.org/2000/svg">
<g clip-path="url(#clip0_1043_10666)">
<rect width="24" height="24" fill="white" fill-opacity="0.01"/>
<path d="M12 1C9.82441 1 7.69767 1.64514 5.88873 2.85383C4.07979 4.06253 2.66989 5.78049 1.83733 7.79048C1.00477 9.80047 0.786929 12.0122 1.21137 14.146C1.6358 16.2798 2.68345 18.2398 4.22183 19.7782C5.76021 21.3165 7.72022 22.3642 9.85401 22.7886C11.9878 23.2131 14.1995 22.9952 16.2095 22.1627C18.2195 21.3301 19.9375 19.9202 21.1462 18.1113C22.3549 16.3023 23 14.1756 23 12C23 9.08262 21.8411 6.28472 19.7782 4.22182C17.7153 2.15892 14.9174 1 12 1ZM21.4286 11.2143H16.7143C16.6226 8.32057 15.8729 5.48576 14.5221 2.925C16.3832 3.43406 18.0432 4.50181 19.2782 5.98412C20.5133 7.46643 21.2638 9.29195 21.4286 11.2143ZM12 21.4286C11.8247 21.4403 11.6489 21.4403 11.4736 21.4286C9.8458 18.8327 8.9424 15.8485 8.85715 12.7857H15.1429C15.0647 15.8463 14.1695 18.8304 12.55 21.4286C12.3669 21.4414 12.1831 21.4414 12 21.4286ZM8.85715 11.2143C8.93531 8.15367 9.83052 5.16965 11.45 2.57143C11.7999 2.53212 12.153 2.53212 12.5029 2.57143C14.1389 5.16491 15.0505 8.14926 15.1429 11.2143H8.85715ZM9.45429 2.925C8.11174 5.48772 7.37015 8.32242 7.28572 11.2143H2.57143C2.7362 9.29195 3.48674 7.46643 4.72177 5.98412C5.95679 4.50181 7.61684 3.43406 9.47786 2.925H9.45429ZM2.61072 12.7857H7.325C7.407 15.677 8.1459 18.5116 9.48572 21.075C7.63054 20.5605 5.97733 19.4904 4.7483 18.0085C3.51926 16.5266 2.77332 14.704 2.61072 12.7857ZM14.5221 21.075C15.8729 18.5142 16.6226 15.6794 16.7143 12.7857H21.4286C21.2638 14.7081 20.5133 16.5336 19.2782 18.0159C18.0432 19.4982 16.3832 20.5659 14.5221 21.075Z" fill="#171414"/>
</g>
<defs>
<clipPath id="clip0_1043_10666">
<rect width="24" height="24" fill="white"/>
</clipPath>
</defs>
</svg>
