<svg width="24" height="24" viewBox="0 0 24 24" fill="none" xmlns="http://www.w3.org/2000/svg">
<path d="M5.76794 9.89258C5.52824 9.89258 5.31517 9.98703 5.15536 10.1624C4.98225 10.3379 4.90234 10.5537 4.90234 10.8101C4.90234 11.0665 4.98225 11.2689 5.15536 11.4578C5.32848 11.6332 5.52824 11.7277 5.76794 11.7277C6.00765 11.7277 6.22072 11.6332 6.39384 11.4578C6.56696 11.2824 6.66017 11.0665 6.66017 10.8101C6.66017 10.5537 6.56696 10.3379 6.39384 10.1624C6.22072 9.97354 6.02096 9.89258 5.76794 9.89258Z" fill="#171414"/>
<path d="M13.2386 9.87891C12.9989 9.87891 12.7859 9.97336 12.6261 10.1488C12.4529 10.3242 12.373 10.5401 12.373 10.7964C12.373 11.0528 12.4529 11.2552 12.6261 11.4441C12.7992 11.6195 12.9989 11.714 13.2386 11.714C13.4783 11.714 13.6914 11.6195 13.8645 11.4441C14.0377 11.2687 14.1309 11.0528 14.1309 10.7964C14.1309 10.5401 14.0377 10.3377 13.8645 10.1488C13.7047 9.95987 13.4917 9.87891 13.2386 9.87891Z" fill="#171414"/>
<path d="M18.2328 9.89258C17.9931 9.89258 17.78 9.98703 17.6202 10.1624C17.4471 10.3379 17.3672 10.5537 17.3672 10.8101C17.3672 11.0665 17.4471 11.2689 17.6202 11.4578C17.7933 11.6332 17.9931 11.7277 18.2328 11.7277C18.4725 11.7277 18.6856 11.6332 18.8587 11.4578C19.0318 11.2824 19.125 11.0665 19.125 10.8101C19.125 10.5537 19.0318 10.3379 18.8587 10.1624C18.6856 9.97354 18.4725 9.89258 18.2328 9.89258Z" fill="#171414"/>
<path d="M20.4421 3.22656H3.55631C2.26457 3.22656 1.19922 4.30602 1.19922 5.61487V15.2895C1.19922 16.5984 2.26457 17.6778 3.55631 17.6778H10.1881C10.1881 17.6778 11.4665 21.2266 11.9326 21.2266C12.3987 21.2266 13.7837 17.6778 13.7837 17.6778H20.4421C21.7339 17.6778 22.7992 16.5984 22.7992 15.2895V5.61487C22.7992 4.30602 21.7339 3.22656 20.4421 3.22656ZM7.47148 12.1591C7.13855 12.5369 6.61919 12.6988 6.05988 12.6988C5.55384 12.6988 5.18097 12.5504 4.91463 12.3345H4.90131V12.6044H3.63621V7.00467H4.90131V9.1501H4.92795C5.27419 8.85325 5.72696 8.7588 6.25964 8.73181C6.71241 8.71832 7.19182 9.00167 7.48479 9.33901C7.76445 9.67634 7.97752 10.2026 7.97752 10.7828C7.97752 11.417 7.81771 11.7813 7.47148 12.1591ZM10.2014 12.6583H8.9097C8.9097 12.6583 8.9097 9.71682 8.9097 9.19058C8.9097 8.39448 8.28381 8.28653 8.28381 8.28653V6.89673C8.28381 6.89673 10.0949 7.00467 10.2014 9.23106C10.2014 9.86524 10.2014 12.6583 10.2014 12.6583ZM15.2752 11.5924C15.1686 11.8488 15.0088 12.0646 14.7958 12.267C14.596 12.4559 14.3563 12.6044 14.09 12.7123C13.8236 12.8203 13.544 12.8742 13.251 12.8742C12.958 12.8742 12.6784 12.8203 12.4254 12.7123C12.159 12.6044 11.9193 12.4559 11.7196 12.267C11.5065 12.0646 11.3467 11.8353 11.2402 11.5924C11.1336 11.3495 11.0804 11.0796 11.0804 10.7963C11.0804 10.5129 11.1336 10.2565 11.2402 10.0002C11.3467 9.7573 11.5065 9.52791 11.7196 9.32551C11.9326 9.13661 12.159 8.98818 12.4254 8.88024C12.6917 8.77229 12.9714 8.71832 13.251 8.71832C13.544 8.71832 13.8236 8.77229 14.09 8.88024C14.3563 8.98818 14.596 9.13661 14.7958 9.32551C15.0088 9.52791 15.1553 9.7438 15.2752 10.0002C15.3817 10.2565 15.435 10.5129 15.435 10.7963C15.435 11.0796 15.3817 11.336 15.2752 11.5924ZM20.3622 12.1456C20.3622 13.1306 20.1758 13.7243 19.7497 14.1426C19.2303 14.6419 18.4979 14.6688 17.8853 14.5879V13.5759C18.4046 13.6299 19.1104 13.279 19.1104 12.6044V12.348H19.0971C18.8041 12.7528 18.3913 12.9012 17.8187 12.9012C17.2993 12.9012 16.8466 12.7123 16.5403 12.348C16.234 11.9837 16.0875 11.4979 16.0875 10.8907C16.0875 10.2026 16.2606 9.66284 16.5935 9.25805C16.9398 8.85325 17.4192 8.66434 17.9785 8.66434C18.4712 8.66434 18.7908 8.78578 19.0971 9.06914H19.1104V8.7588H20.3755V12.1456H20.3622Z" fill="#171414"/>
</svg>
