<svg width="56" height="24" viewBox="0 0 56 24" fill="none" xmlns="http://www.w3.org/2000/svg">
<g clip-path="url(#clip0_695_16493)">
<path d="M14.5 4.6125H22.0625C22.615 4.6125 23.0625 4.165 23.0625 3.6125V1.6125C23.0625 1.06 22.615 0.6125 22.0625 0.6125H2.2725C1.72 0.6125 1.2725 1.06 1.2725 1.6125V3.6125C1.2725 4.165 1.72 4.6125 2.2725 4.6125H14.5Z" fill="black"/>
<path d="M55.56 17.885L54.2575 16.3625C53.9125 15.9575 53.31 15.8975 52.8875 16.22C52.74 16.3325 52.61 16.43 52.54 16.48C50.34 18.0325 47.705 19.025 45.0025 19.5475C44.9775 19.5525 44.955 19.5575 44.93 19.5625C45.1175 19.3475 45.2975 19.125 45.4675 18.895C46.9275 16.935 47.74 14.4575 47.74 11.6975C47.74 8.4675 46.385 5.3475 44.02 3.1425C41.625 0.9075 38.4975 -0.1975 35.215 0.0275C32.8325 0.1925 30.64 1.08 28.86 2.4725C28.8575 2.4725 28.855 2.475 28.8525 2.4775C27.8475 3.2625 26.975 4.205 26.2725 5.27C25.1925 6.9025 24.5125 8.8175 24.37 10.8725C24.145 14.1225 25.3025 17.2475 27.4 19.565C28.6325 20.93 30.1925 22.015 31.9875 22.6775L32.7 22.915C33.7675 23.25 34.9225 23.5125 36.1375 23.695C37.4575 23.895 38.8475 24 40.2725 24C45.295 24 50.73 22.6975 54.96 19.6675C54.965 19.665 54.97 19.6625 54.9725 19.6575C55.0675 19.59 55.2325 19.465 55.4125 19.325C55.8625 18.975 55.93 18.3175 55.56 17.885ZM38.9425 18.915C38.9425 18.915 38.925 18.9225 38.915 18.9275C33.7175 21.1375 27.9875 16.5525 28.36 11.1475C28.4525 9.83 28.88 8.6 29.56 7.545C30.01 6.845 30.57 6.2225 31.215 5.7025C32.4025 4.7425 33.88 4.1275 35.49 4.0175C37.655 3.8725 39.715 4.5975 41.2925 6.0675C42.87 7.54 43.74 9.54 43.74 11.6975C43.74 14.84 42.0075 17.835 38.9425 18.915Z" fill="black"/>
<path d="M6.1875 15.695C4.67 16.995 2.79 18.04 0.6725 18.7825C0.1925 18.95 -0.0875 19.45 0.025 19.945L0.47 21.92C0.6025 22.5025 1.2075 22.835 1.7725 22.645C4.125 21.8525 6.5825 20.6225 8.7875 18.7325C10.45 17.3075 11.625 15.76 12.4575 14.1225C11.2875 12.0025 10.4675 9.04 10.4175 4.615C10.2625 9.695 9.385 12.955 6.185 15.695H6.1875Z" fill="black"/>
<path d="M27.0325 20.0875C26.8525 19.8875 26.44 19.3825 26.42 19.3575C23.5725 18.695 20.8625 17.495 18.725 15.6825L18.6725 15.64C15.5175 12.905 14.6525 9.6625 14.5 4.6125H10.42C10.47 9.0375 11.29 12 12.46 14.12C13.2825 15.7375 14.44 17.2625 16.0675 18.675L16.1375 18.7325C20.51 22.44 26.5275 23.995 32.0325 23.995C32.745 23.995 33.4475 23.9675 34.1375 23.915C33.515 23.8175 31.9175 23.3325 31.62 23.2C29.825 22.5375 28.265 21.4525 27.0325 20.0875Z" fill="black"/>
</g>
<defs>
<clipPath id="clip0_695_16493">
<rect width="56" height="24" fill="white"/>
</clipPath>
</defs>
</svg>
