<svg width="179" height="24" viewBox="0 0 179 24" fill="none" xmlns="http://www.w3.org/2000/svg">
<g clip-path="url(#clip0_1079_16622)">
<path d="M20.6807 4.29229H5.60225V19.4849H20.6904V14.3302L26.2927 15.4929V18.3319C26.2927 20.5313 25.8752 22.0234 25.0499 22.8179C24.2246 23.6124 22.6517 24.0097 20.3312 24.0097H5.96149C3.62156 24.0097 2.04865 23.6124 1.23308 22.8179C0.417498 22.0234 0 20.5313 0 18.3319V5.67784C0 3.49778 0.407789 2.00565 1.23308 1.20145C2.04865 0.397255 3.62156 0 5.96149 0H20.3215C22.642 0 24.2149 0.397255 25.0402 1.20145C25.8655 2.00565 26.283 3.49778 26.283 5.67784V7.94509L20.6807 8.82681V4.2826V4.29229Z" fill="#231916"/>
<path d="M46.6426 5.67784C46.6426 3.49778 47.0504 2.00565 47.8757 1.20145C48.6912 0.397255 50.2738 0 52.6041 0H70.3041C72.644 0 74.2169 0.397255 75.0325 1.20145C75.848 2.00565 76.2655 3.49778 76.2655 5.67784V18.3222C76.2655 20.5216 75.8578 22.0137 75.0325 22.8082C74.2169 23.6027 72.6343 24 70.3041 24H52.6041C50.2641 24 48.6912 23.6027 47.8757 22.8082C47.0601 22.0137 46.6426 20.5216 46.6426 18.3222V5.67784ZM52.2351 19.4849H70.6924V4.29229H52.2351V19.4849Z" fill="#231916"/>
<path d="M96.8789 5.67784C96.8789 3.49778 97.2867 2.00565 98.112 1.20145C98.9276 0.397255 100.51 0 102.84 0H120.54C122.88 0 124.453 0.397255 125.269 1.20145C126.084 2.00565 126.502 3.49778 126.502 5.67784V18.3222C126.502 20.5216 126.094 22.0137 125.269 22.8082C124.453 23.6027 122.871 24 120.54 24H102.84C100.5 24 98.9276 23.6027 98.112 22.8082C97.2964 22.0137 96.8789 20.5216 96.8789 18.3222V5.67784ZM102.471 19.4849H120.929V4.29229H102.471V19.4849Z" fill="#231916"/>
<path d="M147.57 24V0H152.095L163.426 14.5143L174.504 0H178.989V24H173.805V9.17562C173.805 8.88494 173.824 8.52644 173.863 8.09043C173.902 7.65442 173.95 7.16027 174.009 6.61768C173.708 7.23779 173.436 7.75131 173.212 8.14857C172.989 8.54582 172.776 8.87525 172.601 9.13686L163.561 21.1223H162.445L153.386 9.08841C153.056 8.63302 152.765 8.2067 152.532 7.80945C152.299 7.41219 152.105 7.01494 151.949 6.63706C151.998 7.1409 152.027 7.5866 152.056 8.00323C152.075 8.41017 152.095 8.80743 152.095 9.1853V24.0097H147.57V24Z" fill="#231916"/>
</g>
<defs>
<clipPath id="clip0_1079_16622">
<rect width="179" height="24" fill="white"/>
</clipPath>
</defs>
</svg>
